<?xml version="1.0" encoding="UTF-8" standalone="no"?>
<svg xmlns="http://www.w3.org/2000/svg" width="100" height="60" viewBox="0 0 100 60">
  <!-- Corpo del pesce pericoloso (rosso) -->
  <path d="M 80,30 C 80,15 60,5 30,10 C 20,15 20,45 30,50 C 60,55 80,45 80,30 Z" fill="#F44336" stroke="#B71C1C" stroke-width="2"/>
  
  <!-- Coda -->
  <path d="M 30,10 L 10,30 L 30,50 Z" fill="#F44336" stroke="#B71C1C" stroke-width="2"/>
  
  <!-- Occhio -->
  <circle cx="70" cy="25" r="5" fill="white" stroke="black" stroke-width="1"/>
  <circle cx="70" cy="25" r="2" fill="black"/>
  
  <!-- Pinna dorsale -->
  <path d="M 60,10 C 50,0 40,0 35,10 Z" fill="#F44336" stroke="#B71C1C" stroke-width="2"/>
  
  <!-- Pinna ventrale -->
  <path d="M 60,50 C 50,60 40,60 35,50 Z" fill="#F44336" stroke="#B71C1C" stroke-width="2"/>
  
  <!-- Denti -->
  <path d="M 65,30 L 60,25 L 55,30 L 50,25 L 45,30 L 40,25 L 35,30" fill="none" stroke="white" stroke-width="2"/>
</svg>
